<svg xmlns="http://www.w3.org/2000/svg" width="60" height="60" viewBox="0 0 60 60"><g transform="translate(-1106 -1755)"><circle cx="30" cy="30" r="30" transform="translate(1106 1755)" fill="#750f70"/><path d="M36.282,11.734H34.6V10.05H32.912V8.367H29.545V6.683H26.178V5H21.117V6.683H17.751V8.367H14.384V10.05H12.7v1.683H9.33V30.262H12.7v1.683h1.683v1.687h3.367v1.684h3.367V37h5.061V35.317h3.367V33.632h3.367V31.945H34.6V30.261h3.37V11.734H36.282Zm-20.215,0V10.05h3.367V8.367H22.8V6.683h1.694V8.367h3.367V10.05h3.367v1.683h1.683V15.1H29.545v1.683H27.862v1.683H24.495v1.687H22.8V18.467H19.434V16.784H17.751V15.1H14.384V11.734h1.683Zm3.367,21.9V31.945H16.067V30.261H14.384V28.578h-3.37V15.1H12.7v1.683h3.367v1.683h1.683v1.687h3.367v1.69H22.8V33.633H19.434ZM36.282,16.784V28.579h-3.37v1.683H31.228v1.683H27.861v1.687H24.494V21.845h1.683v-1.69h3.367V18.467h1.684V16.784H34.6V15.1h1.687v1.683Z" transform="translate(1112.67 1764)" fill="#fff"/></g></svg>