<svg xmlns="http://www.w3.org/2000/svg" width="60" height="60"><g transform="translate(-1106 -1755)"><circle cx="30" cy="30" r="30" transform="translate(1106 1755)" fill="#750f70"/><path d="M1148.952 1775.734h-1.682v-1.684h-1.688v-1.683h-3.367v-1.684h-3.367V1769h-5.061v1.683h-3.366v1.684h-3.367v1.683h-1.684v1.683H1122v18.529h3.37v1.683h1.683v1.687h3.367v1.684h3.367V1801h5.061v-1.683h3.367v-1.685h3.367v-1.687h1.688v-1.684h3.37v-18.527h-1.688zm-20.215 0v-1.684h3.367v-1.683h3.366v-1.684h1.694v1.684h3.367v1.683h3.367v1.683h1.683v3.367h-3.366v1.683h-1.683v1.683h-3.367v1.687h-1.695v-1.686h-3.366v-1.683h-1.683v-1.684h-3.367v-3.366h1.683zm3.367 21.9v-1.689h-3.367v-1.684h-1.683v-1.683h-3.37V1779.1h1.686v1.683h3.367v1.683h1.683v1.687h3.367v1.69h1.683v11.79h-3.366zm16.848-16.85v11.795h-3.37v1.683h-1.684v1.683h-3.367v1.687h-3.367v-11.787h1.683v-1.69h3.367v-1.688h1.684v-1.683h3.372v-1.684h1.687v1.683z" fill="#fff"/></g></svg>