<svg xmlns="http://www.w3.org/2000/svg" width="60" height="60"><path d="M30 0A30 30 0 1 1 0 30 30 30 0 0 1 30 0z" fill="#750f70"/><path d="M38 30h-2.666v-2.67h2.667zm-5.333-5.333H30V22h2.667zm2.667 8h-2.667V30h2.667zM30 27.33h-2.666v-2.663h2.667zM27.334 30h-2.667v-2.67h2.667zm-2.667 2.667H22V30h2.667zm0 2.667H22v-2.667h2.667zm8 0H30v-2.667h2.667zM30 38h-2.666v-2.67h2.667zm-2.667 0h-2.666v-2.67h2.667zm-2.667 2.667H22V38h2.667zM22 38h-2.666v-2.67H22zm-2.666 2.667h-2.667V38h2.667zM22 43.33h-2.666v-2.663H22zm5.333 0h-2.666v-2.663h2.667zm-8-8h-2.666v-2.663h2.667zM22 40.663h-2.666V38H22zm-2.666 2.667h-2.667v-2.663h2.667zm0 2.667h-2.667V43.33h2.667zm-2.667-2.667H14v-2.663h2.667zm0 2.667H14V43.33h2.667zm10.667-5.333h-2.667V38h2.667zM22 35.33h-2.666v-2.663H22zm2.667 2.667H22V35.33h2.667zm10.667-16h-2.667V19.33h2.667zM38 19.33h-2.666v-2.663h2.667zm2.667-2.667H38V14h2.667zm2.667 0h-2.667V14h2.667zm2.667 0h-2.667V14h2.667zm-2.667 8h-2.667V22h2.667zm-2.667 2.667H38v-2.663h2.667zm-8 16H30v-2.663h2.667zM22 32.667h-2.666V30H22zm8 8h-2.666V38h2.667zm-10.667-8h-2.666V30h2.667zM30 43.33h-2.666v-2.663h2.667zm16-21.333h-2.666V19.33h2.667zm0-2.667h-2.666v-2.663h2.667zM32.667 40.667H30V38h2.667zM22 30h-2.666v-2.67H22zm-2.667 0h-2.666v-2.67h2.667z" fill="#fff" fill-rule="evenodd"/></svg>