<svg xmlns="http://www.w3.org/2000/svg" width="60" height="60" viewBox="0 0 60 60"><g transform="translate(-139 -930)"><path d="M30,0A30,30,0,1,1,0,30,30,30,0,0,1,30,0Z" transform="translate(139 930)" fill="#750f70"/><path d="M24.184,16.47H21.518V13.8h2.667Zm-5.333-5.333H16.184V8.47h2.667Zm2.667,8H18.851V16.47h2.667ZM16.184,13.8H13.518V11.137h2.667ZM13.518,16.47H10.851V13.8h2.667Zm-2.667,2.667H8.184V16.47h2.667Zm0,2.667H8.184V19.137h2.667Zm8,0H16.184V19.137h2.667ZM16.184,24.47H13.518V21.8h2.667Zm-2.667,0H10.851V21.8h2.667Zm-2.667,2.667H8.184V24.47h2.667ZM8.184,24.47H5.518V21.8H8.184ZM5.518,27.137H2.851V24.47H5.518ZM8.184,29.8H5.518V27.137H8.184Zm5.333,0H10.851V27.137h2.667Zm-8-8H2.851V19.137H5.518Zm2.667,5.333H5.518V24.47H8.184ZM5.518,29.8H2.851V27.137H5.518Zm0,2.667H2.851V29.8H5.518ZM2.851,29.8H.184V27.137H2.851Zm0,2.667H.184V29.8H2.851Zm10.667-5.333H10.851V24.47h2.667ZM8.184,21.8H5.518V19.137H8.184Zm2.667,2.667H8.184V21.8h2.667Zm10.667-16H18.851V5.8h2.667ZM24.184,5.8H21.518V3.137h2.667Zm2.667-2.667H24.184V.47h2.667Zm2.667,0H26.851V.47h2.667Zm2.667,0H29.518V.47h2.667Zm-2.667,8H26.851V8.47h2.667ZM26.851,13.8H24.184V11.137h2.667Zm-8,16H16.184V27.137h2.667ZM8.184,19.137H5.518V16.47H8.184Zm8,8H13.518V24.47h2.667Zm-10.667-8H2.851V16.47H5.518ZM16.184,29.8H13.518V27.137h2.667Zm16-21.333H29.518V5.8h2.667Zm0-2.667H29.518V3.137h2.667ZM18.851,27.137H16.184V24.47h2.667ZM8.184,16.47H5.518V13.8H8.184Zm-2.667,0H2.851V13.8H5.518Z" transform="translate(152.816 943.53)" fill="#fff" fill-rule="evenodd"/></g></svg>