<svg xmlns="http://www.w3.org/2000/svg" width="60" height="60"><path d="M30 0A30 30 0 110 30 30 30 0 0130 0z" fill="#750f70"/><g fill="#fff"><path d="M43.458 19.662v-2.667H16.792v2.667h-2.667v21.334h2.667V22.333h2.667v-2.671h21.334v2.667h2.667v18.667h2.667V19.662z"/><path d="M38.125 22.333h2.667V25h-2.667zM35.458 25h2.667v2.667h-2.667zm-2.666 2.667h2.667v2.667h-2.667zm-5.334 2.666V33h5.334v-2.667h-5.334z"/><path d="M24.792 27.667h2.667v2.667h-2.667zM22.125 25h2.667v2.667h-2.667zm-2.667-2.667h2.667V25h-2.667zM38.126 41H16.792v2.666h26.663V41h-5.333z"/></g></svg>