<svg xmlns="http://www.w3.org/2000/svg" width="60" height="60" viewBox="0 0 60 60"><path d="M30,0A30,30,0,1,1,0,30,30,30,0,0,1,30,0Z" fill="#750f70"/><g transform="translate(14.125 17)"><path d="M244.458,224.6v-2.667H217.792V224.6h-2.667v21.334h2.667V227.271h2.667V224.6h21.334v2.667h2.667v18.667h2.667V224.6Z" transform="translate(-215.125 -221.938)" fill="#fff"/><rect width="2.667" height="2.667" transform="translate(24 5.333)" fill="#fff"/><rect width="2.667" height="2.667" transform="translate(21.333 8)" fill="#fff"/><rect width="2.667" height="2.667" transform="translate(18.667 10.667)" fill="#fff"/><path d="M249.187,256v2.667h5.334V256h-5.334Z" transform="translate(-235.854 -242.667)" fill="#fff"/><rect width="2.667" height="2.667" transform="translate(10.667 10.667)" fill="#fff"/><rect width="2.667" height="2.667" transform="translate(8 8)" fill="#fff"/><rect width="2.667" height="2.667" transform="translate(5.333 5.333)" fill="#fff"/><path d="M243.271,283.251H221.937v2.666H248.6v-2.666h-5.333Z" transform="translate(-219.27 -259.251)" fill="#fff"/></g></svg>