<svg xmlns="http://www.w3.org/2000/svg" width="17.658" height="17.658"><path d="M8.829 1.591c2.357 0 2.637.009 3.568.052 2.393.109 3.51 1.244 3.619 3.619.043.931.051 1.21.051 3.568s-.009 2.637-.051 3.568c-.11 2.373-1.224 3.51-3.619 3.619-.931.043-1.21.052-3.568.052s-2.637-.009-3.568-.052c-2.4-.11-3.51-1.25-3.619-3.62-.043-.931-.052-1.21-.052-3.568s.01-2.636.052-3.568c.11-2.374 1.224-3.51 3.619-3.619.931-.042 1.21-.051 3.568-.051zm0-1.591c-2.4 0-2.7.01-3.64.053C1.983.2.2 1.979.054 5.188.01 6.131 0 6.431 0 8.829s.01 2.7.053 3.64C.2 15.676 1.979 17.458 5.188 17.6c.942.043 1.243.053 3.64.053s2.7-.01 3.64-.053c3.2-.147 4.99-1.926 5.135-5.135.043-.942.054-1.243.054-3.64s-.01-2.7-.053-3.64C17.46 1.986 15.679.2 12.47.054 11.528.01 11.227 0 8.829 0zm0 4.3a4.534 4.534 0 1 0 4.534 4.534A4.534 4.534 0 0 0 8.829 4.3zm0 7.477a2.943 2.943 0 1 1 2.943-2.943 2.943 2.943 0 0 1-2.943 2.938zm4.713-8.715A1.059 1.059 0 1 0 14.6 4.116a1.06 1.06 0 0 0-1.058-1.059z" fill="#750f70"/></svg>