<svg xmlns="http://www.w3.org/2000/svg" width="28" height="28"><path d="M14 2.524c3.738 0 4.181.014 5.658.082 3.794.173 5.566 1.973 5.739 5.739.068 1.476.08 1.919.08 5.657s-.014 4.181-.08 5.657c-.174 3.762-1.941 5.566-5.739 5.739-1.477.068-1.918.082-5.658.082s-4.181-.014-5.657-.082c-3.8-.174-5.566-1.982-5.739-5.74-.068-1.476-.082-1.918-.082-5.657s.015-4.18.082-5.657C2.778 4.578 4.545 2.777 8.343 2.6c1.477-.066 1.919-.08 5.657-.08zM14 0c-3.8 0-4.278.016-5.771.084C3.144.317.318 3.138.085 8.227.016 9.722 0 10.2 0 14s.016 4.279.084 5.773c.233 5.084 3.054 7.91 8.143 8.143C9.722 27.984 10.2 28 14 28s4.279-.016 5.773-.084c5.08-.233 7.912-3.054 8.142-8.143C27.984 18.279 28 17.8 28 14s-.016-4.278-.084-5.771c-.229-5.08-3.053-7.91-8.142-8.143C18.279.016 17.8 0 14 0zm0 6.811A7.19 7.19 0 1021.189 14 7.189 7.189 0 0014 6.811zm0 11.856A4.667 4.667 0 1118.667 14 4.666 4.666 0 0114 18.667zm7.474-13.82a1.68 1.68 0 101.679 1.68 1.681 1.681 0 00-1.679-1.68z" fill="#38619a"/></svg>