<svg xmlns="http://www.w3.org/2000/svg" width="30" height="24" viewBox="0 0 30 24"><defs><style>.a{fill:#38619a;}</style></defs><path class="a" d="M30,5.089a12.44,12.44,0,0,1-3.535.954,6.087,6.087,0,0,0,2.706-3.352,12.448,12.448,0,0,1-3.909,1.47A6.19,6.19,0,0,0,20.77,2.248a6.088,6.088,0,0,0-6,7.438A17.566,17.566,0,0,1,2.089,3.357a6.01,6.01,0,0,0,1.9,8.089,6.2,6.2,0,0,1-2.786-.758,6.086,6.086,0,0,0,4.936,6.017,6.264,6.264,0,0,1-2.78.1,6.148,6.148,0,0,0,5.75,4.207A12.516,12.516,0,0,1,0,23.526a17.625,17.625,0,0,0,9.435,2.722A17.25,17.25,0,0,0,26.929,8.226,12.424,12.424,0,0,0,30,5.089Z" transform="translate(0 -2.248)"/></svg>