<svg xmlns="http://www.w3.org/2000/svg" width="18.919" height="15.135"><path d="M18.919 1.792a7.845 7.845 0 0 1-2.229.6A3.838 3.838 0 0 0 18.4.279a7.85 7.85 0 0 1-2.465.927A3.9 3.9 0 0 0 13.1 0a3.839 3.839 0 0 0-3.783 4.691 11.078 11.078 0 0 1-8-3.992 3.79 3.79 0 0 0 1.2 5.1 3.912 3.912 0 0 1-1.756-.476 3.838 3.838 0 0 0 3.113 3.795 3.95 3.95 0 0 1-1.753.065 3.877 3.877 0 0 0 3.626 2.653A7.893 7.893 0 0 1 0 13.419a11.115 11.115 0 0 0 5.95 1.717A10.879 10.879 0 0 0 16.982 3.77a7.835 7.835 0 0 0 1.937-1.978z" fill="#750f70"/></svg>