<svg xmlns="http://www.w3.org/2000/svg" width="41.16" height="63"><defs><style>.a,.c{fill:#fff}.c{fill-rule:evenodd}</style></defs><path d="M0 0h41.16v63H0z"/><path class="a" d="M.306 51.175h40.345v11.417H.306z"/><path d="M17.422 53.01v8.359h1.63V58.11h.408l.815 3.262h1.223V53.01h-1.63v3.466h-.408l-.815-3.466zm12.837 8.359l1.223-8.359h2.241l1.223 8.359h-1.63l-.408-1.631h-.611l-.408 1.631zm2.038-3.058l.2-3.262h.2l.2 3.262zM10.901 53.01l1.426 8.359h1.223l.408-3.058h.2l.408 3.058h1.225l1.427-8.359h-1.834l-.408 3.874h-.2l-.2-3.874H13.55l-.2 3.874h-.2l-.415-3.874zm14.671 8.359h-3.464V53.01h1.63v6.728h1.834zm9.577-8.359v8.359h3.056l1.223-1.223v-5.913l-1.223-1.223zm1.834 1.631h.611v5.1h-.611zm-11.003-.408v5.913l1.223 1.223h1.834l1.223-1.223v-5.913l-1.224-1.223h-1.834zm1.834.408h.611v5.1h-.611zm-21.192-.408v5.913l1.223 1.223h1.834l1.223-1.223v-5.913L9.678 53.01H7.845zm1.834.408h.611v5.1h-.611zM1.732 53.01v8.359h3.056l1.223-1.223v-5.913L4.788 53.01zm1.834 1.631h.611v5.1h-.611z" fill-rule="evenodd"/><path class="c" d="M39.428 49.748h-5.094V37.515h3.056v9.786h2.038zm-12.022 0l1.426-12.233h3.874l1.426 12.233h-2.445l-.408-2.243H30.26l-.408 2.243zm3.668-4.689h-.611l.2-4.485h.2zm-4.075-5.097v9.786h-3.056v-9.786h-1.427v-2.447h5.909v2.447z"/><path class="a" d="M8.456 37.515h3.056v12.233H8.456z"/><path class="c" d="M13.958 37.515l-1.63 1.631v8.969l1.63 1.631h3.056l1.63-1.631v-4.689h-3.26v2.243h.408V47.3h-.611v-7.34h.611v2.243h2.853v-2.854l-1.63-1.631-.2-.2z"/><path class="a" d="M19.256 37.515h3.056v12.233h-3.056z"/><path class="c" d="M1.732 37.515h4.483l1.834 1.835v8.765l-1.681 1.682H1.732zm2.649 2.243h.611v7.544h-.611zM25.776 2.243h8.966l4.737 4.689v8.155h-8.2v-6.32h-1.63v19.976h1.63v-7.539h8.2v9.583l-5.145 4.536h-7.745l-5.5-4.536V6.932zm-24.044 0h12.633l5.3 4.689v12.641l-5.3 4.485H9.882v11.265h-8.15zm8.15 6.32h1.63v9.18h-1.63z"/></svg>