<svg xmlns="http://www.w3.org/2000/svg" width="164.749" height="32.543" viewBox="0 0 164.749 32.543"><defs><style>.a{fill:#fff;}</style></defs><g transform="translate(0)"><g transform="translate(0 0)"><path class="a" d="M103.753,26.124,97.478,17.7,91.2,26.124H88.62l7.556-10.169L89.271,6.7h2.593l5.614,7.547L103.1,6.7h2.573L98.79,15.955l7.556,10.169Z" transform="translate(1.634 0.114)"/><path class="a" d="M55.676,26.124,48.12,15.955l6.9-9.255H52.432l-5.624,7.547L41.194,6.7H38.621l6.885,9.255L37.95,26.124h2.593L46.818,17.7l6.275,8.421Z" transform="translate(0.688 0.114)"/><path class="a" d="M69.8,16.688a5.582,5.582,0,0,0-1.281-.814,4.395,4.395,0,0,0,2.359-3.849c0-1.246-.458-5.285-6.387-5.285H56.508v8.3H53.844c-.346.442-1.129,1.507-1.424,1.949h4.068v9.1h7.983c4.322,0,7.007-2.17,7.007-5.667a4.738,4.738,0,0,0-1.7-3.768M58.715,8.73h5.776c1.556,0,4.18.382,4.18,3.085,0,2.01-1.525,3.266-4.18,3.266H58.715Zm5.776,15.354H58.715V17.05h5.776c2.186,0,4.81.593,4.81,3.386,0,3.205-3.051,3.688-4.81,3.688" transform="translate(0.959 0.115)"/><path class="a" d="M81.546,6.26c-5.522,0-9.376,4.172-9.376,10.155s3.854,10.155,9.376,10.155,9.366-4.172,9.366-10.155S87.069,6.26,81.546,6.26m0,18.258c-4.2,0-7.119-3.338-7.119-8.1s2.949-8.1,7.119-8.1,7.119,3.328,7.119,8.1-2.939,8.1-7.119,8.1" transform="translate(1.328 0.107)"/><path class="a" d="M4.891,4.632h0a16.383,16.383,0,0,0-1.525,21.58s.061.051.092,0a.061.061,0,0,0,0-.081C2.206,22.266,8.542,12.91,11.9,8.974V8.913C6.346,3.391,4.871,4.652,4.881,4.642" transform="translate(-0.019 0.077)"/><path class="a" d="M27.537,4.632h0a16.353,16.353,0,0,1,1.525,21.58s-.051.051-.081,0a.061.061,0,0,1,0-.081C30.232,22.266,23.9,12.91,20.55,8.964a.051.051,0,0,1,0-.051c5.553-5.532,7.017-4.261,7-4.271" transform="translate(0.329 0.077)"/><path class="a" d="M16.254,0A16.139,16.139,0,0,1,24.8,2.4a.051.051,0,0,1,0,.081h-.071C21.552,1.8,16.732,4.515,16.274,4.82H16.2c-1.21-.7-5.665-3.051-8.471-2.319a.061.061,0,0,1-.081,0,.071.071,0,0,1,0-.081A16.119,16.119,0,0,1,16.254,0" transform="translate(0.11 0)"/><path class="a" d="M16.3,12.92h.061C21.271,16.683,29.651,25.9,27.088,28.5h0a16.363,16.363,0,0,1-21.57,0h0C2.965,25.9,11.345,16.683,16.247,13H16.3" transform="translate(0.066 -0.014)"/><path class="a" d="M143.791,6.7V22.637L131.913,6.69H129.96v19.4h2.186V10.509l11.644,15.6,2.186.01V6.7Z" transform="translate(2.429 0.114)"/><path class="a" d="M118.947,6.25c-5.522,0-9.387,4.182-9.387,10.155s3.864,10.165,9.387,10.165,9.366-4.172,9.366-10.165S124.459,6.25,118.947,6.25m0,18.268c-4.21,0-7.119-3.338-7.119-8.114s2.949-8.1,7.119-8.1,7.119,3.338,7.119,8.1-2.929,8.114-7.119,8.114" transform="translate(2.026 0.106)"/><path class="a" d="M150.327,24.215V17.03h10.821v-1.9H150.327V8.589h11.553V6.69H148.13V26.114h13.882v-1.9Z" transform="translate(2.738 0.114)"/></g></g></svg>