<svg xmlns="http://www.w3.org/2000/svg" width="164.749" height="32.543"><defs><style>.a{fill:#fff}</style></defs><path class="a" d="M105.387 26.238l-6.275-8.424-6.278 8.424h-2.58l7.556-10.169-6.905-9.255h2.593l5.614 7.547 5.622-7.547h2.573l-6.883 9.255 7.556 10.169zm-49.023 0l-7.556-10.169 6.9-9.255H53.12l-5.624 7.547-5.614-7.547h-2.573l6.885 9.255-7.556 10.169h2.593l6.275-8.424 6.275 8.421z"/><path class="a" d="M70.759 16.803a5.582 5.582 0 0 0-1.281-.814 4.395 4.395 0 0 0 2.359-3.849c0-1.246-.458-5.285-6.387-5.285h-7.983v8.3h-2.664a47.166 47.166 0 0 0-1.424 1.949h4.068v9.1h7.983c4.322 0 7.007-2.17 7.007-5.667a4.738 4.738 0 0 0-1.7-3.768M59.674 8.845h5.776c1.556 0 4.18.382 4.18 3.085 0 2.01-1.525 3.266-4.18 3.266h-5.776zm5.776 15.354h-5.776v-7.034h5.776c2.186 0 4.81.593 4.81 3.386 0 3.205-3.051 3.688-4.81 3.688M82.874 6.367c-5.522 0-9.376 4.172-9.376 10.155s3.854 10.155 9.376 10.155 9.366-4.172 9.366-10.155-3.843-10.155-9.366-10.155m0 18.258c-4.2 0-7.119-3.338-7.119-8.1s2.949-8.1 7.119-8.1 7.119 3.328 7.119 8.1-2.939 8.1-7.119 8.1M4.872 4.709a16.383 16.383 0 0 0-1.525 21.58s.061.051.092 0a.061.061 0 0 0 0-.081c-1.252-3.865 5.084-13.221 8.442-17.157V8.99C6.327 3.468 4.852 4.729 4.862 4.719m23.004-.01a16.353 16.353 0 0 1 1.525 21.58s-.051.051-.081 0a.061.061 0 0 1 0-.081c1.251-3.865-5.081-13.221-8.431-17.167a.051.051 0 0 1 0-.051c5.553-5.532 7.017-4.261 7-4.271M16.364 0a16.139 16.139 0 0 1 8.546 2.4.051.051 0 0 1 0 .081h-.071c-3.177-.681-7.997 2.034-8.455 2.339h-.074c-1.21-.7-5.665-3.051-8.471-2.319a.061.061 0 0 1-.081 0 .071.071 0 0 1 0-.081A16.119 16.119 0 0 1 16.364 0m.002 12.906h.061c4.91 3.763 13.29 12.98 10.727 15.58a16.363 16.363 0 0 1-21.57 0c-2.553-2.6 5.827-11.817 10.729-15.5h.053M146.22 6.814v15.937L134.342 6.804h-1.953v19.4h2.186V10.623l11.644 15.6 2.186.01V6.814zm-25.247-.458c-5.522 0-9.387 4.182-9.387 10.155s3.864 10.165 9.387 10.165 9.366-4.172 9.366-10.165-3.854-10.155-9.366-10.155m0 18.268c-4.21 0-7.119-3.338-7.119-8.114s2.949-8.1 7.119-8.1 7.119 3.338 7.119 8.1-2.929 8.114-7.119 8.114m32.092-.295v-7.185h10.821v-1.9h-10.821V8.703h11.553V6.804h-13.75v19.424h13.882v-1.9z"/></svg>