<svg xmlns="http://www.w3.org/2000/svg" width="164.749" height="34.217" viewBox="0 0 164.749 34.217"><defs><style>.a{fill:#fff;}</style></defs><g transform="translate(0)"><g transform="translate(0)"><g transform="translate(0)"><g transform="translate(59.204 8.041)"><g transform="translate(101.152 18.76)"><path class="a" d="M693.225,116.329h-.785v-.269H694.3v.269h-.776v2.105h-.3Z" transform="translate(-692.44 -116.06)"/><path class="a" d="M702.746,118.434l-.646-1.927v1.927h-.31V116.06h.431l.681,2.019.685-2.019h.431v2.374h-.313v-1.927l-.648,1.927Z" transform="translate(-699.625 -116.06)"/></g><path class="a" d="M421.523,35.05H407.7c-4.009,0-5.97,2.471-5.97,5.685v9.773c0,1.989-.945,3.423-2.937,3.423H385.808a.148.148,0,0,0-.148.148v1.964a.15.15,0,0,0,.15.148H400.3c4.009,0,5.972-2.464,5.972-5.678V40.735c0-1.994.945-3.427,2.934-3.427h12.318a.148.148,0,0,0,.148-.146V35.2a.151.151,0,0,0-.148-.151" transform="translate(-355.552 -35.05)"/><path class="a" d="M280.8,35.08h-25a.148.148,0,0,0-.148.148V37.19a.146.146,0,0,0,.151.148h23.5c1.992,0,2.936,1.433,2.936,3.425s-.945,3.423-2.936,3.423H260.708c-2.883,0-5.058,2.425-5.058,5.641V56.08a.148.148,0,0,0,.151.148h4.238a.148.148,0,0,0,.148-.148V49.827c0-1.992,1.158-3.381,2.793-3.381H280.8c4.009,0,5.97-2.464,5.97-5.678s-1.961-5.685-5.97-5.685" transform="translate(-255.65 -35.073)"/><path class="a" d="M567.128,51.7h-4.236a.153.153,0,0,1-.155-.148V37.321c0-2.184-1.51-2.9-3.636-1.589L533.628,51.378c-1,.616-1.336,1.311-1.1,1.823.208.442.76.75,1.853.75h23.672a.151.151,0,0,1,.134.111v2a.153.153,0,0,0,.148.153h4.254a.153.153,0,0,0,.148-.153V54.1a.153.153,0,0,1,.148-.153h4.24a.153.153,0,0,0,.153-.151V51.841a.153.153,0,0,0-.153-.148m-8.934-.16a.153.153,0,0,1-.148.155H538.211c-.16,0-.245-.042-.269-.1s.028-.162.146-.232l19.738-12.163c.137-.083.366-.069.366.2Z" transform="translate(-468.354 -35.07)"/></g><path class="a" d="M71.76,0V31.925l7.235,2.292V7.438c0-1.25.56-2.08,1.464-1.8,1.183.328,1.413,1.481,1.413,2.734V19.068c4.514,2.174,8.066,0,8.066-5.74,0-5.89-2.084-8.5-8.207-10.6A87.218,87.218,0,0,0,71.76,0Z" transform="translate(-55.142)"/><path class="a" d="M109,99.809l11.635-4.143c1.32-.463,1.524-1.144.452-1.5a7.826,7.826,0,0,0-4.335.232L109,97.122V92.773l.447-.151a26.722,26.722,0,0,1,5.394-1.158,23.1,23.1,0,0,1,10.046,1.2c3.416,1.081,3.8,2.67,2.932,3.763a8.347,8.347,0,0,1-2.994,1.878L109,104Z" transform="translate(-83.758 -70.267)"/><path class="a" d="M3.338,93.365c-3.506-.991-4.09-3.043-2.494-4.231a17.034,17.034,0,0,1,3.992-1.917L15.215,83.53v4.2L7.745,90.408c-1.32.463-1.519,1.144-.449,1.494a7.836,7.836,0,0,0,4.338-.232l3.583-1.3v3.763l-.713.116a23.5,23.5,0,0,1-11.165-.887" transform="translate(-0.001 -64.262)"/><path class="a" d="M173.233,134.9a1.4,1.4,0,1,1,.41,1A1.408,1.408,0,0,1,173.233,134.9Zm1.408,1.7a1.693,1.693,0,1,0-1.2-.5,1.693,1.693,0,0,0,1.2.5" transform="translate(-132.896 -102.436)"/><path class="a" d="M178.321,136.869a.245.245,0,0,1-.081.215.463.463,0,0,1-.248.06h-.523v-.535h.565a.375.375,0,0,1,.181.035A.232.232,0,0,1,178.321,136.869Zm.375,1.213a.12.12,0,0,1-.058-.083.778.778,0,0,0-.012-.144l-.012-.232a.415.415,0,0,0-.067-.25.341.341,0,0,0-.111-.095.463.463,0,0,0,.141-.137.505.505,0,0,0,.074-.287.463.463,0,0,0-.278-.463.817.817,0,0,0-.357-.065h-.878v1.885h.329v-.773h.514a.6.6,0,0,1,.2.03.213.213,0,0,1,.1.2l.016.3v.148a.29.29,0,0,0,.023.072l.014.021h.384V138.1l-.023-.012" transform="translate(-136.118 -104.832)"/></g></g></g></svg>