<svg xmlns="http://www.w3.org/2000/svg" width="164.749" height="34.217"><defs><style>.a{fill:#fff}</style></defs><path class="a" d="M161.141 27.07h-.785v-.269h1.86v.269h-.776v2.105h-.3zm2.336 2.105l-.646-1.927v1.927h-.31v-2.374h.431l.681 2.019.685-2.019h.431v2.374h-.313v-1.927l-.648 1.927zM125.175 8.041h-13.823c-4.009 0-5.97 2.471-5.97 5.685v9.773c0 1.989-.945 3.423-2.937 3.423H89.46a.148.148 0 00-.148.148v1.964a.15.15 0 00.15.148h14.49c4.009 0 5.972-2.464 5.972-5.678v-9.778c0-1.994.945-3.427 2.934-3.427h12.318a.148.148 0 00.148-.146V8.191a.151.151 0 00-.148-.151m-40.822.008h-25a.148.148 0 00-.148.148v1.962a.146.146 0 00.151.148h23.5c1.992 0 2.936 1.433 2.936 3.425s-.945 3.423-2.936 3.423H64.262c-2.883 0-5.058 2.425-5.058 5.641v6.253a.148.148 0 00.151.148h4.238a.148.148 0 00.148-.148v-6.253c0-1.992 1.158-3.381 2.793-3.381h17.82c4.009 0 5.97-2.464 5.97-5.678s-1.961-5.685-5.97-5.685m73.624 16.62h-4.236a.153.153 0 01-.155-.148V10.292c0-2.184-1.51-2.9-3.636-1.589l-25.473 15.646c-1 .616-1.336 1.311-1.1 1.823.208.442.76.75 1.853.75h23.672a.151.151 0 01.134.111v2a.153.153 0 00.148.153h4.254a.153.153 0 00.148-.153v-1.962a.153.153 0 01.148-.153h4.24a.153.153 0 00.153-.151v-1.955a.153.153 0 00-.153-.148m-8.934-.16a.153.153 0 01-.148.155h-19.832c-.16 0-.245-.042-.269-.1s.028-.162.146-.232l19.738-12.163c.137-.083.366-.069.366.2zM16.618 0v31.925l7.235 2.292V7.438c0-1.25.56-2.08 1.464-1.8 1.183.328 1.413 1.481 1.413 2.734v10.696c4.514 2.174 8.066 0 8.066-5.74 0-5.89-2.084-8.5-8.207-10.6A87.218 87.218 0 0016.618 0z"/><path class="a" d="M25.242 29.542l11.635-4.143c1.32-.463 1.524-1.144.452-1.5a7.826 7.826 0 00-4.335.232l-7.752 2.724v-4.349l.447-.151a26.722 26.722 0 015.394-1.158 23.1 23.1 0 0110.046 1.2c3.416 1.081 3.8 2.67 2.932 3.763a8.347 8.347 0 01-2.994 1.878l-15.825 5.695zm-21.905-.439c-3.506-.991-4.09-3.043-2.494-4.231a17.034 17.034 0 013.992-1.917l10.379-3.687v4.2l-7.47 2.678c-1.32.463-1.519 1.144-.449 1.494a7.836 7.836 0 004.338-.232l3.583-1.3v3.763l-.713.116A23.5 23.5 0 013.338 29.1m36.999 3.364a1.4 1.4 0 11.41 1 1.408 1.408 0 01-.41-1zm1.408 1.7a1.693 1.693 0 10-1.2-.5 1.693 1.693 0 001.2.5"/><path class="a" d="M42.203 32.037a.245.245 0 01-.081.215.463.463 0 01-.248.06h-.523v-.535h.565a.375.375 0 01.181.035.232.232 0 01.106.225zm.375 1.213a.12.12 0 01-.058-.083.778.778 0 00-.012-.144l-.012-.232a.415.415 0 00-.067-.25.341.341 0 00-.111-.095.463.463 0 00.141-.137.505.505 0 00.074-.287.463.463 0 00-.278-.463.817.817 0 00-.357-.065h-.878v1.885h.329v-.773h.514a.6.6 0 01.2.03.213.213 0 01.1.2l.016.3v.148a.29.29 0 00.023.072l.014.021h.384v-.109l-.023-.012"/></svg>