<svg xmlns="http://www.w3.org/2000/svg" width="61.855" height="63"><path d="M25.352 62.673h2.083V53.3h-2.083zM14.471 47.468l2.464 3.32h.981v-4.966h-1.009v3.26l-2.439-3.26h-1v4.965h1.006zm11.186-1.646h-4.206v1.052h1.586v3.913h1.068v-3.928h1.561zM19.178 60.1l-1.983-6.8h-1.662l-1.974 6.77-1.8-6.77H9.718l2.651 9.369h2.248l1.746-6.168 1.749 6.165h2.248l2.665-9.366h-2.039zm14.1-20.355h6.118a10.19 10.19 0 0010.19-10.19V10.2A10.19 10.19 0 0039.392 0h-6.149a.259.259 0 00-.259.259v39.2a.29.29 0 00.29.29zm7.573-21.9a4.019 4.019 0 11-4.019 4.016 4.019 4.019 0 014.019-4.016zM9.722 45.807H8.616v4.965h1.106zm-8.295 1.661l2.467 3.32h.981v-4.966H3.866v3.26l-2.442-3.275h-1v4.965h1.003zM4.372 57h-.056c-1.146-.2-2.133-.375-2.223-1.046a.659.659 0 01.172-.522 2.867 2.867 0 012.1-.543 8.063 8.063 0 012.864.643l.671-1.625a10.48 10.48 0 00-3.626-.721C2.248 53.186.1 54.173.1 56c0 1.483 1.046 2.239 3.747 2.7 1.892.312 2.936.506 2.907 1.321-.019.447-.365 1.2-2.5 1.2a6.617 6.617 0 01-3.345-.874L0 61.939a9.153 9.153 0 004.1.993c2.979 0 4.553-1.034 4.553-2.985-.003-1.393-.702-2.32-4.281-2.947zm11.652-45.077a3.747 3.747 0 103.747-3.747 3.747 3.747 0 00-3.747 3.747zm17.125 37.928h-2.857v-1.165h2.636v-.906h-2.636v-1.062h2.851v-.912H29.29v4.962h3.86zm23.225-4.21a2.648 2.648 0 102.642 2.648 2.648 2.648 0 00-2.642-2.648zm0 4.194a1.561 1.561 0 111.54-1.561 1.546 1.546 0 01-1.54 1.561zM56.712 57H52.34v-3.692H50.4v9.369h1.94v-3.748h4.372v3.747h1.939v-9.368h-1.939zm2.72 4.706h.393v.968h.231v-.968h.384v-.228h-1.008zm2.124-.244l-.312.878-.312-.878H60.6v1.2h.215v-.918l.312.909h.206l.312-.909v.918h.212v-1.2zm-17.392-6.377a3 3 0 012.57 1.455l1.524-1.324a5 5 0 100 5.574l-1.524-1.327a3 3 0 01-2.57 1.455 2.917 2.917 0 110-5.834zm-14.443.215h2.992v7.376h2.014V55.3h2.926v-1.992h-7.932zm12-4.525v-4.968h-1.014v3.26l-2.439-3.26h-1v4.965h1.006v-3.3l2.464 3.32zM28.731 0h-8.7A10.193 10.193 0 009.834 10.193v19.362a10.19 10.19 0 0010.193 10.19h8.7a.29.29 0 00.29-.29V.29a.29.29 0 00-.29-.29zM25.8 36.538h-5.773a6.989 6.989 0 01-6.989-6.98V10.2a7 7 0 016.989-7H25.8zM47.974 45.8h-2.068v4.965h2.052a2.5 2.5 0 100-4.965zm.05 3.922H46.94v-2.879h1.084a1.44 1.44 0 010 2.879z" fill="#fff"/></svg>