<svg xmlns="http://www.w3.org/2000/svg" width="61.855" height="63" viewBox="0 0 61.855 63"><defs><style>.a{fill:#fff;}</style></defs><path class="a" d="M25.352,62.673h2.083V53.3H25.352ZM14.471,47.468l2.464,3.32h.981V45.822H16.907v3.26l-2.439-3.26h-1v4.965h1.006Zm11.186-1.646H21.451v1.052h1.586v3.913h1.068V46.859h1.561ZM19.178,60.1l-1.983-6.8H15.533l-1.974,6.77-1.8-6.77H9.718l2.651,9.369h2.248l1.746-6.168,1.749,6.165h2.248L23.025,53.3H20.986Zm14.1-20.355h6.118a10.19,10.19,0,0,0,10.19-10.19V10.2A10.19,10.19,0,0,0,39.392,0H33.243a.259.259,0,0,0-.259.259v39.2a.29.29,0,0,0,.29.29Zm7.573-21.9a4.019,4.019,0,1,1-4.019,4.016,4.019,4.019,0,0,1,4.019-4.016ZM9.722,45.807H8.616v4.965H9.722ZM1.427,47.468l2.467,3.32h.981V45.822H3.866v3.26L1.424,45.807h-1v4.965H1.427ZM4.372,57H4.316c-1.146-.2-2.133-.375-2.223-1.046a.659.659,0,0,1,.172-.522,2.867,2.867,0,0,1,2.1-.543,8.063,8.063,0,0,1,2.864.643L7.9,53.907a10.48,10.48,0,0,0-3.626-.721C2.248,53.186.1,54.173.1,56c0,1.483,1.046,2.239,3.747,2.7,1.892.312,2.936.506,2.907,1.321-.019.447-.365,1.2-2.5,1.2a6.617,6.617,0,0,1-3.345-.874L0,61.939a9.153,9.153,0,0,0,4.1.993c2.979,0,4.553-1.034,4.553-2.985C8.65,58.554,7.951,57.627,4.372,57ZM16.024,11.923a3.747,3.747,0,1,0,3.747-3.747,3.747,3.747,0,0,0-3.747,3.747ZM33.149,49.851H30.292V48.686h2.636V47.78H30.292V46.718h2.851v-.912H29.29v4.962h3.86Zm23.225-4.21a2.648,2.648,0,1,0,2.642,2.648,2.648,2.648,0,0,0-2.642-2.648Zm0,4.194a1.561,1.561,0,1,1,1.54-1.561,1.546,1.546,0,0,1-1.54,1.561ZM56.712,57H52.34V53.308H50.4v9.369H52.34V58.929h4.372v3.747h1.939V53.308H56.712Zm2.72,4.706h.393v.968h.231v-.968h.384v-.228H59.432Zm2.124-.244-.312.878-.312-.878H60.6v1.2h.215v-.918l.312.909h.206l.312-.909v.918h.212v-1.2ZM44.164,55.085a3,3,0,0,1,2.57,1.455l1.524-1.324a5,5,0,1,0,0,5.574l-1.524-1.327a3,3,0,0,1-2.57,1.455,2.917,2.917,0,1,1,0-5.834ZM29.721,55.3h2.992v7.376h2.014V55.3h2.926V53.308H29.721Zm12-4.525V45.807H40.707v3.26l-2.439-3.26h-1v4.965h1.006v-3.3l2.464,3.32ZM28.731,0h-8.7A10.193,10.193,0,0,0,9.834,10.193V29.555a10.19,10.19,0,0,0,10.193,10.19h8.7a.29.29,0,0,0,.29-.29V.29a.29.29,0,0,0-.29-.29ZM25.8,36.538H20.027a6.989,6.989,0,0,1-6.989-6.98V10.2A7,7,0,0,1,20.027,3.2H25.8ZM47.974,45.8H45.906v4.965h2.052a2.5,2.5,0,1,0,0-4.965Zm.05,3.922H46.94V46.843h1.084a1.44,1.44,0,0,1,0,2.879Z"/></svg>