<svg xmlns="http://www.w3.org/2000/svg" width="41.16" height="63" viewBox="0 0 41.16 63"><defs><style>.a,.c{fill:#fff;}.b,.c{fill-rule:evenodd;}</style></defs><g transform="translate(0)"><rect width="41.16" height="63" transform="translate(0)"/><rect class="a" width="40.345" height="11.417" transform="translate(0.306 51.175)"/><path class="b" d="M86,260v8.359h1.63V265.1h.408l.815,3.262h1.223V260h-1.63v3.466h-.408L87.223,260Z" transform="translate(-68.578 -206.99)"/><path class="b" d="M149,268.359,150.223,260h2.241l1.223,8.359h-1.63l-.408-1.631h-.611l-.408,1.631Zm2.038-3.058.2-3.262h.2l.2,3.262Z" transform="translate(-118.741 -206.99)"/><path class="b" d="M54,260l1.426,8.359h1.223l.408-3.058h.2l.408,3.058H58.89L60.317,260H58.483l-.408,3.874h-.2l-.2-3.874H56.649l-.2,3.874h-.2L55.834,260Z" transform="translate(-43.099 -206.99)"/><path class="b" d="M112.464,268.359H109V260h1.63v6.728h1.834Z" transform="translate(-86.892 -206.99)"/><path class="b" d="M173,260v8.359h3.056l1.223-1.223v-5.913L176.056,260Zm1.834,1.631h.611v5.1h-.611Z" transform="translate(-137.851 -206.99)"/><path class="b" d="M128,261.223v5.913l1.223,1.223h1.834l1.223-1.223v-5.913L131.056,260h-1.834Zm1.834.408h.611v5.1h-.611Z" transform="translate(-102.02 -206.99)"/><path class="b" d="M33,261.223v5.913l1.223,1.223h1.834l1.223-1.223v-5.913L36.056,260H34.223Zm1.834.408h.611v5.1h-.611Z" transform="translate(-26.378 -206.99)"/><path class="b" d="M9,260v8.359h3.056l1.223-1.223v-5.913L12.056,260Zm1.834,1.631h.611v5.1h-.611Z" transform="translate(-7.268 -206.99)"/><path class="c" d="M174.094,196.233H169V184h3.056v9.786h2.038Z" transform="translate(-134.666 -146.485)"/><path class="c" d="M135,196.233,136.426,184H140.3l1.426,12.233h-2.445l-.408-2.243h-1.019l-.408,2.243Zm3.668-4.689h-.611l.2-4.485h.2Z" transform="translate(-107.594 -146.485)"/><path class="c" d="M115.483,186.447v9.786h-3.056v-9.786H111V184h5.909v2.447Z" transform="translate(-88.484 -146.485)"/><rect class="a" width="3.056" height="12.233" transform="translate(8.456 37.515)"/><path class="c" d="M62.63,184,61,185.631V194.6l1.63,1.631h3.056l1.63-1.631v-4.689h-3.26v2.243h.408v1.631h-.611v-7.34h.611v2.243h2.853v-2.854l-1.63-1.631-.2-.2Z" transform="translate(-48.672 -146.485)"/><rect class="a" width="3.056" height="12.233" transform="translate(19.256 37.515)"/><path class="c" d="M9,184h4.483l1.834,1.835V194.6l-1.681,1.682H9Zm2.649,2.243h.611v7.544h-.611Z" transform="translate(-7.268 -146.485)"/><path class="c" d="M108.687,11h8.966l4.737,4.689v8.155h-8.2v-6.32h-1.63V37.5h1.63V29.961h8.2v9.583l-5.145,4.536H109.5L104,39.544V15.689Z" transform="translate(-82.911 -8.757)"/><path class="c" d="M9,11H21.633l5.3,4.689V28.33l-5.3,4.485H17.15V44.08H9Zm8.15,6.32h1.63V26.5H17.15Z" transform="translate(-7.268 -8.757)"/></g></svg>